<mxfile host="Electron" modified="2024-04-02T12:25:38.457Z" agent="Mozilla/5.0 (Windows NT 10.0; Win64; x64) AppleWebKit/537.36 (KHTML, like Gecko) draw.io/21.6.1 Chrome/112.0.5615.204 Electron/24.6.1 Safari/537.36" etag="8mryQWFqimBG8kd_lJdM" version="21.6.1" type="device" pages="2">
  <diagram name="D:\PatrickDaten\WorkspaceGit\-MarkovChain-to-Code" id="HxZEipsc1KVCHKJfXfnL">
    <mxGraphModel dx="978" dy="571" grid="1" gridSize="10" guides="1" tooltips="1" connect="1" arrows="1" fold="1" page="1" pageScale="1" pageWidth="827" pageHeight="1169" math="0" shadow="0">
      <root>
        <mxCell id="0" />
        <mxCell id="1" parent="0" />
        <mxCell id="t3dM9cpDcrp2R5S7ML-B-8" value="MarkovKette" style="shape=folder;fontStyle=1;tabWidth=110;tabHeight=30;tabPosition=left;html=1;boundedLbl=1;labelInHeader=1;container=1;collapsible=0;whiteSpace=wrap;fontSize=16;" parent="1" vertex="1">
          <mxGeometry x="45" y="260" width="140" height="110" as="geometry" />
        </mxCell>
        <mxCell id="t3dM9cpDcrp2R5S7ML-B-9" value="" style="html=1;strokeColor=none;resizeWidth=1;resizeHeight=1;fillColor=none;part=1;connectable=0;allowArrows=0;deletable=0;whiteSpace=wrap;fontSize=16;" parent="t3dM9cpDcrp2R5S7ML-B-8" vertex="1">
          <mxGeometry width="140" height="77" relative="1" as="geometry">
            <mxPoint y="30" as="offset" />
          </mxGeometry>
        </mxCell>
        <mxCell id="jsHUn5DAixF5Q91Rj3lC-1" value="ReadMe.md" style="shape=card;whiteSpace=wrap;html=1;" vertex="1" parent="1">
          <mxGeometry x="45" y="90" width="110" height="140" as="geometry" />
        </mxCell>
      </root>
    </mxGraphModel>
  </diagram>
  <diagram id="D7rllaEsF7Hz2x-xLav-" name="D:\PatrickDaten\WorkspaceGit\-MarkovChain-to-Code\MarkovKette">
    <mxGraphModel dx="1418" dy="828" grid="1" gridSize="10" guides="1" tooltips="1" connect="1" arrows="1" fold="1" page="1" pageScale="1" pageWidth="827" pageHeight="1169" math="0" shadow="0">
      <root>
        <mxCell id="0" />
        <mxCell id="1" parent="0" />
        <mxCell id="NQjgEFYmHQQIMJ2D6zu9-1" value="MarkovToCode.py" style="shape=card;whiteSpace=wrap;html=1;" vertex="1" parent="1">
          <mxGeometry x="45" y="90" width="110" height="140" as="geometry" />
        </mxCell>
        <mxCell id="NQjgEFYmHQQIMJ2D6zu9-2" value="MarkovChain.py" style="shape=card;whiteSpace=wrap;html=1;" vertex="1" parent="1">
          <mxGeometry x="40" y="250" width="110" height="140" as="geometry" />
        </mxCell>
        <mxCell id="RAYypofkQ5cTevq_mDoQ-1" value="ReadMe.md" style="shape=card;whiteSpace=wrap;html=1;" vertex="1" parent="1">
          <mxGeometry x="30" y="410" width="110" height="140" as="geometry" />
        </mxCell>
      </root>
    </mxGraphModel>
  </diagram>
</mxfile>
